Results
version=1
nRows=22
nColumns=24
inDegrees=yes
endheader
time	pelvis_tilt	pelvis_list	pelvis_rotation	pelvis_tx	pelvis_ty	pelvis_tz	hip_flexion_r	hip_adduction_r	hip_rotation_r	knee_angle_r	ankle_angle_r	subtalar_angle_r	mtp_angle_r	hip_flexion_l	hip_adduction_l	hip_rotation_l	knee_angle_l	ankle_angle_l	subtalar_angle_l	mtp_angle_l	lumbar_extension	lumbar_bending	lumbar_rotation
      1.01316667	     -5.18359251	     -1.95561710	     -2.41581647	     -0.10070212	      1.03679755	      0.34837597	     -8.39999038	      5.01553305	     -0.89800169	     -9.97066269	     16.25536098	      2.68790345	      8.84090722	     27.89524811	     -3.11086697	      1.38888442	      1.46599733	      1.21707940	     -0.32305817	      5.28329272	    -10.33380580	      5.20886099	      4.91994640
      1.01733333	     -5.17762800	     -1.91570079	     -2.53681367	     -0.09472593	      1.03607065	      0.34828673	     -8.50824803	      4.89497642	     -0.98747452	    -10.50040345	     16.40152891	      3.03278619	      8.94673114	     27.90263861	     -3.01487952	      1.56341527	      1.20339930	      1.18662771	     -0.32657917	      5.26761994	    -10.32707740	      5.08966045	      4.98314447
      1.02150000	     -5.13445359	     -1.84844435	     -2.64877122	     -0.08870634	      1.03544427	      0.34819694	     -8.65987105	      4.74373724	     -1.05299139	    -11.02527603	     16.54829766	      3.35353746	      9.05393838	     27.86998938	     -2.88582481	      1.74314679	      0.87479005	      1.13343700	     -0.33903124	      5.26875907	    -10.36834317	      4.92147792	      5.02795233
      1.02566667	     -5.12162778	     -1.78102461	     -2.76412062	     -0.08265739	      1.03481034	      0.34809688	     -8.75601708	      4.58850742	     -1.14424908	    -11.59732997	     16.65887219	      3.69596386	      9.18002637	     27.87535206	     -2.75631722	      1.92899722	      0.47421706	      1.05107237	     -0.37382673	      5.28436311	    -10.36035126	      4.75703476	      5.08245544
      1.02983333	     -5.08408949	     -1.69383778	     -2.87464248	     -0.07656482	      1.03426340	      0.34798825	     -8.87448741	      4.40849582	     -1.22801321	    -12.17820076	     16.73275221	      4.02889453	      9.32444798	     27.85110963	     -2.60340773	      2.11018490	      0.02561165	      0.92477965	     -0.41286253	      5.31475648	    -10.38386923	      4.56845678	      5.11817210
      1.03400000	     -5.05765760	     -1.59308949	     -2.98295240	     -0.07042139	      1.03373982	      0.34786657	     -8.96810432	      4.21059998	     -1.32344779	    -12.78841212	     16.78864679	      4.36213360	      9.48617780	     27.84124558	     -2.43485659	      2.29164356	     -0.47780865	      0.77090059	     -0.46570647	      5.35731404	    -10.37584062	      4.35841603	      5.14895578
      1.03816667	     -5.04199090	     -1.48677842	     -3.08660069	     -0.06425497	      1.03323460	      0.34773251	     -9.03316708	      4.00430175	     -1.42759039	    -13.43185990	     16.81219757	      4.70721234	      9.67763445	     27.85154851	     -2.25846534	      2.47093731	     -1.04079210	      0.58070475	     -0.53379928	      5.41410889	    -10.36017246	      4.14865253	      5.17160207
      1.04233333	     -5.03745341	     -1.37413732	     -3.18438934	     -0.05804003	      1.03274734	      0.34757441	     -9.07713921	      3.78889372	     -1.52901464	    -14.09616253	     16.80401064	      5.03697867	      9.88847549	     27.87613707	     -2.07370822	      2.65043925	     -1.64340753	      0.36163332	     -0.61030040	      5.48045729	    -10.30815273	      3.92681451	      5.18489756
      1.04650000	     -5.00296041	     -1.24117220	     -3.27964947	     -0.05180395	      1.03236537	      0.34741589	     -9.13774685	      3.54630283	     -1.64338071	    -14.78673616	     16.75873727	      5.37352533	     10.11794450	     27.87202449	     -1.86801347	      2.80462400	     -2.28457919	      0.10676526	     -0.69594913	      5.55280244	    -10.31218437	      3.68118461	      5.19078189
      1.05066667	     -4.99495127	     -1.11185013	     -3.36953530	     -0.04554121	      1.03197445	      0.34722681	     -9.14973814	      3.30419901	     -1.76837832	    -15.51902443	     16.68495858	      5.72176572	     10.38041122	     27.90864245	     -1.66513815	      2.95628936	     -2.97587015	     -0.16321578	     -0.78919735	      5.63296148	    -10.26399580	      3.44304768	      5.19098334
      1.05483333	     -4.96065012	     -0.98639301	     -3.46158783	     -0.03927730	      1.03167063	      0.34702038	     -9.17656425	      3.05950949	     -1.88124645	    -16.26440996	     16.50822594	      6.00311393	     13.46490057	     27.91371728	     -1.46619111	      3.13748855	     -3.68013164	     -0.48618230	     -1.03190718	      6.56353886	    -10.25661242	      3.22459563	      5.16203614
      1.05900000	     -4.96510786	     -0.83319503	     -3.53383712	     -0.03293885	      1.03135063	      0.34680974	     -9.14366504	      2.78933381	     -2.01976611	    -17.05668711	     16.33343826	      6.30926213	     13.52001800	     27.98622376	     -1.24042537	      3.21040992	     -4.45536864	     -0.76482658	     -1.01524301	      6.56852590	    -10.17435140	      2.93727859	      5.15432811
      1.06316667	     -4.94234454	     -0.69663038	     -3.60910196	     -0.02665199	      1.03109910	      0.34653707	     -9.10034946	      2.51931348	     -2.20289908	    -17.92194045	     16.18293784	      6.73047849	     13.65151016	     28.04459505	     -1.02968744	      3.28403219	     -5.27359780	     -1.03318496	     -1.09188855	      6.58127161	    -10.14868114	      2.71156789	      5.14493071
      1.06733333	     -4.94477368	     -0.54911951	     -3.68343347	     -0.02031805	      1.03085395	      0.34627062	     -9.01203643	      2.23652202	     -2.37417770	    -18.82007188	     15.96613129	      7.11008108	     13.83104682	     28.13183385	     -0.81456648	      3.34205793	     -6.11107915	     -1.30626237	     -1.17813612	      6.59492089	    -10.07631791	      2.45419355	      5.11820157
      1.07150000	     -4.90801376	     -0.38492311	     -3.74730519	     -0.01396646	      1.03072921	      0.34597431	     -8.94906465	      1.92729617	     -2.56167863	    -19.73664629	     15.64275825	      7.45490567	     16.28032390	     28.17251882	     -0.57887289	      3.40347535	     -6.94767225	     -1.58035065	     -1.31129232	      6.75421720	    -10.05140727	      2.17178570	      5.08221175
      1.07566667	     -4.91938586	     -0.21862563	     -3.82008838	     -0.00757526	      1.03057536	      0.34570775	     -8.80991053	      1.61785575	     -2.71334688	    -20.70204513	     15.29808605	      7.78987846	     16.32779936	     28.27902238	     -0.35699636	      3.38393308	     -7.83027476	     -1.80635514	     -1.34532521	      6.74964038	     -9.95761217	      1.87600814	      5.03615341
      1.07983333	     -4.92164294	     -0.07713450	     -3.88411408	     -0.00125565	      1.03044261	      0.34534665	     -8.62737517	      1.31460565	     -2.93993844	    -21.76830370	     14.99280236	      8.24713025	     16.45706871	     28.39734845	     -0.15520268	      3.35423588	     -8.75668302	     -1.98611674	     -1.37879525	      6.74134001	     -9.89487272	      1.65285683	      5.01030285
      1.08400000	     -4.89830924	      0.09061058	     -3.94758572	      0.00510344	      1.03041316	      0.34501090	     -8.45559032	      0.97971921	     -3.14619233	    -22.85683625	     14.60076926	      8.66453326	     16.63285193	     28.47445088	      0.06684595	      3.29655890	     -9.66403020	     -2.14868338	     -1.41036645	      6.72778817	     -9.84640669	      1.37143131	      4.96751941
      1.08816667	     -4.88026212	      0.25119087	     -4.01011340	      0.01145429	      1.03040284	      0.34464245	     -8.24673045	      0.64178612	     -3.36239391	    -23.99642419	     14.16622309	      9.09016208	     16.86647321	     28.56144415	      0.27847964	      3.22038164	    -10.58804347	     -2.26491699	     -1.42409169	      6.70769265	     -9.79851323	      1.10890043	      4.92576389
      1.09233333	     -4.83248853	      0.41613805	     -4.08579395	      0.01780175	      1.03047967	      0.34432286	     -8.04557814	      0.29489995	     -3.53104946	    -25.16267272	     13.62832612	      9.42018034	     19.88645589	     28.62342819	      0.47686366	      3.02454372	    -11.53652729	     -2.28217690	     -1.28609837	      6.40749835	     -9.79313038	      0.81312888	      4.90300817
      1.09650000	     -4.82713850	      0.57234984	     -4.12364299	      0.02416102	      1.03053584	      0.34390504	     -7.77564787	     -0.04395973	     -3.74017910	    -26.37247041	     13.02470766	      9.81820613	     19.94893275	     28.69587491	      0.69118899	      3.01888830	    -12.40967254	     -2.36584210	     -1.38858533	      6.39788049	     -9.71774256	      0.54715308	      4.83579322
      1.10066667	     -4.76919209	      0.72249664	     -4.16907357	      0.03045859	      1.03067430	      0.34346947	     -7.51643969	     -0.39919822	     -3.98396528	    -27.66088842	     12.45994715	     10.27118819	     20.84371800	     28.72959030	      0.88804943	      2.86351566	    -13.31806060	     -2.34519769	     -1.26870499	      6.25377698	     -9.73387485	      0.30591562	      4.83031345
